<svg xmlns="http://www.w3.org/2000/svg" viewBox="0 0 100 100">
  <circle cx="50" cy="50" r="50" fill="#0f172a"/>
  <path d="M44 28 C34 24, 22 28, 20 40 C13 36, 8 44, 11 52 C6 56, 7 66, 14 70 C13 78, 21 84, 30 82 C33 88, 42 89, 47 84 L47 28 Z"
    fill="#6366f115" stroke="#6366f1" stroke-width="2" stroke-linecap="round" stroke-linejoin="round"/>
  <path d="M56 28 C66 24, 78 28, 80 40 C87 36, 92 44, 89 52 C94 56, 93 66, 86 70 C87 78, 79 84, 70 82 C67 88, 58 89, 53 84 L53 28 Z"
    fill="#6366f115" stroke="#6366f1" stroke-width="2" stroke-linecap="round" stroke-linejoin="round"/>
  <line x1="50" y1="29" x2="50" y2="83" stroke="#4f46e5" stroke-width="1.2" stroke-dasharray="3,2"/>
  <path d="M34 42 C30 50, 30 60, 34 68" fill="none" stroke="#818cf8" stroke-width="1.5" stroke-linecap="round"/>
  <path d="M24 52 C28 58, 28 65, 24 70" fill="none" stroke="#818cf8" stroke-width="1.5" stroke-linecap="round"/>
  <path d="M66 42 C70 50, 70 60, 66 68" fill="none" stroke="#818cf8" stroke-width="1.5" stroke-linecap="round"/>
  <path d="M76 52 C72 58, 72 65, 76 70" fill="none" stroke="#818cf8" stroke-width="1.5" stroke-linecap="round"/>
  <circle cx="50" cy="56" r="4" fill="#818cf8"/>
  <circle cx="50" cy="56" r="2" fill="#e0e7ff"/>
  <circle cx="14" cy="61" r="2.5" fill="#a5b4fc"/>
  <circle cx="86" cy="61" r="2.5" fill="#a5b4fc"/>
</svg>
